<svg width="48" height="48" viewBox="0 0 48 48" fill="none" xmlns="http://www.w3.org/2000/svg">
<path d="M35.3211 22.4C34.8611 21.8 34.3011 21.28 33.7811 20.76C32.4411 19.56 30.9211 18.7 29.6411 17.44C26.6611 14.52 26.0011 9.7 27.9011 6C26.0011 6.46 24.3411 7.5 22.9211 8.64C17.7411 12.8 15.7011 20.14 18.1411 26.44C18.2211 26.64 18.3011 26.84 18.3011 27.1C18.3011 27.54 18.0011 27.94 17.6011 28.1C17.1411 28.3 16.6611 28.18 16.2811 27.86C16.1676 27.7649 16.0726 27.6496 16.0011 27.52C13.7411 24.66 13.3811 20.56 14.9011 17.28C11.5611 20 9.74108 24.6 10.0011 28.94C10.1211 29.94 10.2411 30.94 10.5811 31.94C10.8611 33.14 11.4011 34.34 12.0011 35.4C14.1611 38.86 17.9011 41.34 21.9211 41.84C26.2011 42.38 30.7811 41.6 34.0611 38.64C37.7211 35.32 39.0011 30 37.1211 25.44L36.8611 24.92C36.4411 24 35.3211 22.4 35.3211 22.4ZM29.0011 35C28.4411 35.48 27.5211 36 26.8011 36.2C24.5611 37 22.3211 35.88 21.0011 34.56C23.3811 34 24.8011 32.24 25.2211 30.46C25.5611 28.86 24.9211 27.54 24.6611 26C24.4211 24.52 24.4611 23.26 25.0011 21.88C25.3811 22.64 25.7811 23.4 26.2611 24C27.8011 26 30.2211 26.88 30.7411 29.6C30.8211 29.88 30.8611 30.16 30.8611 30.46C30.9211 32.1 30.2011 33.9 29.0011 35Z" fill="#FF0000"/>
</svg>
